<svg width="112" height="113" viewBox="0 0 112 113" fill="none" xmlns="http://www.w3.org/2000/svg">
<path d="M0 56.6401C0 25.7089 25.0688 0.640137 56 0.640137C86.9313 0.640137 112 25.7089 112 56.6401C112 87.5714 86.9313 112.64 56 112.64C25.0688 112.64 0 87.5714 0 56.6401ZM56 81.1401C58.9094 81.1401 61.25 78.7995 61.25 75.8901V61.8901H75.25C78.1594 61.8901 80.5 59.5495 80.5 56.6401C80.5 53.7308 78.1594 51.3901 75.25 51.3901H61.25V37.3901C61.25 34.4808 58.9094 32.1401 56 32.1401C53.0906 32.1401 50.75 34.4808 50.75 37.3901V51.3901H36.75C33.8406 51.3901 31.5 53.7308 31.5 56.6401C31.5 59.5495 33.8406 61.8901 36.75 61.8901H50.75V75.8901C50.75 78.7995 53.0906 81.1401 56 81.1401Z" fill="white"/>
</svg>
