<svg width="28" height="29" viewBox="0 0 28 29" fill="none" xmlns="http://www.w3.org/2000/svg">
<path d="M19.8351 1.65251C21.2023 0.285428 23.4226 0.285428 24.7898 1.65251L26.9445 3.80883C28.3117 5.17547 28.3117 7.3936 26.9445 8.76079L24.2977 11.4077L17.1883 4.29938L19.8351 1.65251ZM23.0617 12.6436L10.3086 25.3913C9.73983 25.96 9.03437 26.3811 8.26327 26.6053L1.68272 28.5413C1.22225 28.678 0.72405 28.5522 0.384441 28.1639C0.0448205 27.8741 -0.082153 27.3764 0.0533626 26.9116L1.98897 20.3327C2.21647 19.5616 2.63374 18.8561 3.20304 18.2873L15.9523 5.53641L23.0617 12.6436Z" fill="#272630"/>
</svg>
