<svg width="194" height="261" viewBox="0 0 194 261" fill="none" xmlns="http://www.w3.org/2000/svg">
<g clip-path="url(#clip0_166_231)">
<path d="M53.2285 21.127L55.6341 27.8148L43.1367 32.3102L30.6392 36.8055L69.2896 144.258L107.94 251.71L188.757 222.64L269.573 193.571L230.923 86.1184L192.273 -21.3338L179.775 -16.8385L167.278 -12.3432L164.872 -19.0311L162.467 -25.719L106.645 -5.63996L50.8228 14.4391L53.2285 21.127ZM157.186 -1.16L159.592 5.5279L116.267 21.1116L72.9428 36.6953L70.5371 30.0074L68.1315 23.3195L111.456 7.73582L154.78 -7.84789L157.186 -1.16ZM62.851 47.8785L65.2566 54.5664L121.078 34.4874L176.9 14.4084L174.495 7.72048L172.089 1.0326L178.338 -1.21505L184.586 -3.46271L218.426 90.6137L252.265 184.69L183.945 209.264L115.626 233.839L81.787 139.762L47.9479 45.6859L54.1966 43.4383L60.4453 41.1906L62.851 47.8785Z" fill="white"/>
<path d="M77.2848 88.0059L79.6904 94.6938L85.9391 92.4461L92.1879 90.1985L89.7822 83.5106L87.3766 76.8227L81.1279 79.0703L74.8792 81.318L77.2848 88.0059Z" fill="white"/>
<path d="M102.279 79.0153L104.685 85.7032L148.009 70.1195L191.334 54.5357L188.928 47.8479L186.523 41.16L143.198 56.7437L99.8738 72.3274L102.279 79.0153Z" fill="white"/>
<path d="M88.5109 119.216L90.9165 125.904L97.1652 123.656L103.414 121.409L101.008 114.721L98.6027 108.033L92.354 110.28L86.1053 112.528L88.5109 119.216Z" fill="white"/>
<path d="M113.506 110.225L115.912 116.913L159.236 101.33L202.56 85.7459L200.155 79.058L197.749 72.3701L154.425 87.9538L111.1 103.538L113.506 110.225Z" fill="white"/>
<path d="M99.737 150.426L102.143 157.114L108.391 154.866L114.64 152.619L112.234 145.931L109.829 139.243L103.58 141.491L97.3313 143.738L99.737 150.426Z" fill="white"/>
<path d="M124.732 141.436L127.138 148.124L170.462 132.54L213.787 116.956L211.381 110.268L208.975 103.58L165.651 119.164L122.326 134.748L124.732 141.436Z" fill="white"/>
<path d="M110.964 181.636L113.369 188.324L119.618 186.077L125.867 183.829L123.461 177.141L121.055 170.453L114.807 172.701L108.558 174.948L110.964 181.636Z" fill="white"/>
<path d="M133.956 166.165C133.838 166.359 134.803 169.436 136.07 172.958L138.364 179.334L181.688 163.75L225.013 148.166L222.607 141.478L220.201 134.79L177.169 150.269C153.465 158.795 134.017 165.942 133.956 166.165Z" fill="white"/>
</g>
<defs>
<clipPath id="clip0_166_231">
<rect width="226.668" height="242.599" fill="white" transform="translate(0 32.72) rotate(-19.7836)"/>
</clipPath>
</defs>
</svg>
