<svg width="280" height="328" viewBox="0 0 280 328" fill="none" xmlns="http://www.w3.org/2000/svg">
<path d="M21.9061 10.1434C14.6474 16.3618 8.26134 25.1753 4.53588 34.4132C-6.6146 62.0268 4.99252 94.3413 30.9381 107.919C33.8044 109.4 36.3697 110.809 36.6076 110.919C36.7824 111.066 34.6708 112.842 31.9167 114.835C29.0623 116.803 25.5333 119.937 24.0496 121.756C18.9125 128.217 16.6095 137.105 17.891 145.526L18.5617 149.928L66.5502 230.188C98.3574 283.244 115.499 311.473 117.318 313.499C123.386 320.306 133.347 324.015 142.816 323.045L148.072 322.499L180.243 303.413L212.351 284.365L218.457 294.523L224.6 304.742L214.451 311.012L204.276 317.381L207.177 322.636L210.04 327.828L309.183 268.231L408.326 208.633L405.084 203.668L401.804 198.641L391.469 204.601L381.108 210.661L374.965 200.441L368.859 190.284L400.806 170.826L432.69 151.407L435.638 147.021C440.937 139.114 442.335 128.577 439.17 120.025C438.234 117.467 421.345 89.0866 389.412 36.107L341.045 -43.9249L337.471 -46.5828C330.636 -51.6647 321.906 -53.7527 313.389 -52.3429C309.036 -51.581 308.368 -51.2636 280.11 -34.5299L251.221 -17.4169L247.958 -21.2732C236.512 -34.8822 216.985 -38.068 201.65 -28.8496C186.188 -19.5552 179.818 -1.13919 186.278 15.4667L188.276 20.5053L154.576 40.7631L120.877 61.021L121.036 58.1425C121.335 53.4942 120.158 42.8187 118.911 38.1719C117.015 31.3016 111.001 20.5827 105.979 15.0859C84.0918 -8.60404 46.6775 -10.8183 21.9061 10.1434ZM50.199 8.90308C62.6224 5.98819 76.2005 8.28138 86.7676 14.9984C94.5202 20.0346 97.7752 23.3056 102.131 30.5522C106.45 37.7368 107.875 42.108 108.66 51.417C109.192 57.5897 108.958 60.3444 107.365 66.6983C105.671 73.0282 104.534 75.5668 101.052 80.7795C95.8166 88.6485 92.3993 91.9676 85.1046 96.2683C66.0087 107.663 42.1542 105.139 26.8246 90.0708C21.8102 85.1592 16.546 76.6879 14.5091 70.1551C9.35363 53.8612 14.3251 34.2622 26.7178 22.0065C31.4522 17.3055 43.7923 10.3934 50.199 8.90308ZM216.928 -22.0133C221.229 -22.5754 225.409 -22.0528 229.606 -20.3596C238.851 -16.5575 244.991 -5.91452 243.796 4.24693C243.237 8.46171 240.073 14.917 236.919 18.2461C229.284 26.1244 216.167 27.6009 206.512 21.6851C203.559 19.9184 202.625 18.7935 199.572 13.7147C196.482 8.57398 196.065 7.30739 195.878 3.70965C195.62 -0.435447 197.305 -7.35064 199.214 -10.6062C202.484 -16.0287 210.413 -21.1323 216.928 -22.0133ZM58.6514 115.29C63.8641 115.529 70.3534 114.748 76.485 113.086C82.8431 111.371 94.7383 105.148 98.8126 101.35C100.482 99.8405 101.974 98.6064 102.175 98.6544C102.413 98.7643 113.068 107.199 125.883 117.371L149.227 136.053L147.015 142.948C143.382 154.913 143.819 165.358 148.47 176.812C156.811 197.262 181.061 209.161 203.404 203.74C210.39 202.07 220.269 196.637 225.634 191.557C239.149 178.88 244.35 158.805 238.662 141.483C234.361 128.469 223.826 117.517 210.958 112.689L206.059 110.828L213.72 74.2661C217.967 54.1755 221.508 37.6284 221.571 37.5904C221.697 37.5146 223.421 37.2374 225.345 37.0082C234.791 35.7145 244.312 29.4009 250.007 20.5811L253.44 15.1446L276.568 19.0327C289.217 21.2098 299.734 22.9827 299.934 23.0307C300.098 23.0167 300.609 25.1543 301.155 27.7773C305.308 47.1193 330.648 52.5442 343.293 36.8487C354.15 23.3241 347.276 3.17231 330.419 -0.859756C321.288 -3.04378 310.542 0.802479 305.398 8.11021C303.188 11.2937 303.062 11.3696 301.13 11.0135C300 10.8493 290.313 9.16853 279.533 7.38555C268.753 5.60255 259.166 3.94575 258.099 3.74369C256.33 3.37363 256.293 3.31169 255.949 -1.11909L255.594 -5.71169L285.177 -23.242L314.76 -40.7724L318.97 -40.7731C321.57 -40.7344 324.58 -40.0144 326.896 -38.8771L330.614 -36.9803L373.769 34.3805L416.823 105.717L265.995 196.385L115.166 287.052L72.7218 216.444C26.5173 139.581 28.9714 144.093 29.802 137.185C29.9523 135.577 31.193 132.639 32.5019 130.672C34.6634 127.264 35.3204 126.785 44.7235 121.133L54.6946 115.139L58.6514 115.29ZM198.889 31.1576C200.001 32.0069 202.429 33.33 204.258 34.0856C206.087 34.8412 207.953 35.6588 208.466 35.9406C209.042 36.1845 206.773 48.8466 202.498 69.4606C198.743 87.6537 195.254 104.001 194.851 105.761L194.06 109.019L188.841 109.626C178.203 110.794 167.524 115.611 159.958 122.604C158.11 124.39 156.303 125.813 156.002 125.741C155.262 125.512 111.121 90.2411 110.637 89.4359C110.414 89.0643 110.825 87.8898 111.548 86.9492C112.271 86.0085 113.646 83.5798 114.565 81.6784L116.288 78.1131L156.551 53.9099L196.814 29.7067L198.889 31.1576ZM324.479 10.5528C333.02 10.8989 338.704 18.7811 335.834 26.1554C332.183 35.5171 319.62 36.9137 314.468 28.6282C309.613 20.8381 315.473 10.1487 324.479 10.5528ZM183.152 122.743C196.195 119.287 209.224 122.669 218.855 131.972C227.5 140.351 230.86 153.086 227.651 165.471C222.58 185.046 203.231 196.592 183.628 191.85C167.937 188.044 156.685 173.898 156.653 157.981C156.579 152.713 158.738 144.586 161.348 140.066C165.881 132.029 174.855 124.948 183.152 122.743ZM425.759 120.582C429.854 127.395 429.922 133.51 425.914 140.135L424.209 143.015L284.424 227.043L144.64 311.072L141.296 311.226C133.565 311.658 128.197 308.73 124.102 301.917L121.495 297.581L272.324 206.914L423.153 116.247L425.759 120.582ZM364.236 206.891L370.38 217.11L302.854 257.702L235.328 298.293L229.185 288.074L223.042 277.854L290.567 237.263L358.093 196.671L364.236 206.891Z" fill="white"/>
</svg>
