<svg width="51" height="50" viewBox="0 0 51 50" fill="none" xmlns="http://www.w3.org/2000/svg">
<path d="M10.18 0.107422C8.90502 0.322266 7.55033 0.898438 6.47455 1.70898C3.25717 4.13086 2.35072 8.68164 4.41263 12.0605C4.64174 12.4316 4.84095 12.7734 4.86088 12.8027C4.87084 12.832 4.50228 12.8906 4.04408 12.9297C3.57592 12.959 2.94838 13.0762 2.64955 13.1836C1.60365 13.5742 0.717127 14.4434 0.278845 15.5078L0.0497438 16.0645L0.019861 28.7012C0.00990005 37.0605 0.0298219 41.5234 0.0995485 41.8848C0.32865 43.0957 1.22513 44.2188 2.39056 44.7656L3.03803 45.0684L8.09818 45.0977L13.1484 45.127V46.7285V48.3398L11.5347 48.3594L9.91107 48.3887L9.88119 49.1992L9.85131 50H25.4999H41.1486L41.1187 49.1992L41.0888 48.3887L39.4751 48.3594L37.8515 48.3398V46.7285V45.127L42.9117 45.0977L47.9619 45.0684L48.6093 44.7656C49.7747 44.2188 50.6712 43.0957 50.9003 41.8848C50.9701 41.5234 50.99 37.0605 50.98 28.7012L50.9501 16.0645L50.721 15.5078C50.2828 14.4434 49.4162 13.5938 48.3304 13.1641C47.7726 12.9492 47.673 12.9395 43.2304 12.9102L38.6882 12.8809L38.5787 12.207C38.2001 9.83398 36.1581 8.10547 33.7376 8.10547C31.2972 8.10547 29.2751 9.79492 28.8667 12.168L28.7472 12.8906H23.4281H18.1089L18.3281 12.5684C18.6867 12.0508 19.2943 10.7324 19.4736 10.1074C19.7326 9.17969 19.7824 7.51953 19.5831 6.5332C18.6966 2.26562 14.513 -0.595703 10.18 0.107422ZM13.5468 1.93359C15.1904 2.46094 16.6048 3.67188 17.3619 5.18555C17.9097 6.30859 18.0591 6.91406 18.0591 8.05664C18.0591 9.18945 17.9197 9.79492 17.3619 10.9277C16.9933 11.6797 16.7742 11.9824 16.1466 12.6074C15.5091 13.2227 15.2003 13.4375 14.4333 13.7988C13.2779 14.3457 12.6503 14.4922 11.5048 14.4824C8.49662 14.4727 5.90678 12.5195 5.17963 9.70703C4.94056 8.78906 4.92064 7.44141 5.13978 6.54297C5.67767 4.29688 7.62006 2.37305 9.91107 1.81641C10.7876 1.60156 12.7001 1.66016 13.5468 1.93359ZM35.0326 9.96094C35.5704 10.1953 36.0187 10.5469 36.3872 11.0352C37.1941 12.1191 37.1642 13.7793 36.3175 14.873C35.9589 15.3223 35.1421 15.8496 34.5445 16.0156C33.1101 16.3965 31.4865 15.6543 30.7792 14.2969C30.5601 13.8867 30.5302 13.6914 30.5302 12.8906C30.5302 12.0801 30.5701 11.9043 30.7992 11.4746C31.0581 10.9766 31.7355 10.293 32.1837 10.0488C32.9408 9.64844 34.2158 9.60938 35.0326 9.96094ZM7.11205 14.8438C7.69974 15.2344 8.50658 15.5957 9.33334 15.8301C10.19 16.0742 12.0029 16.1816 12.74 16.0254C13.0388 15.9668 13.2978 15.9277 13.3177 15.9473C13.3376 15.9766 13.9851 17.6953 14.762 19.7656L16.1665 23.5547L15.4294 24.1992C14.1744 25.332 13.497 26.5723 13.238 28.2227C12.7798 31.1719 14.762 34.2383 17.7304 35.166C18.6568 35.459 20.1808 35.5176 21.157 35.3027C23.6074 34.7754 25.6095 32.8125 26.1574 30.4102C26.5658 28.6035 26.1076 26.6016 24.9521 25.1465L24.5138 24.5898L27.9503 20.8887C29.8429 18.8574 31.4068 17.1875 31.4167 17.1875C31.4367 17.1875 31.6558 17.2754 31.8949 17.3828C33.0802 17.8906 34.6242 17.8223 35.8992 17.1973L36.6761 16.8066L39.0867 18.8672C40.4015 20 41.4972 20.9375 41.5171 20.957C41.537 20.9668 41.4474 21.25 41.3279 21.5918C40.4613 24.1211 43.0212 26.5137 45.5812 25.5762C47.7826 24.7656 48.3902 21.9531 46.7167 20.3125C45.8103 19.4238 44.2962 19.1211 43.1906 19.6094C42.7124 19.8242 42.6925 19.8242 42.4933 19.6484C42.3738 19.5508 41.3677 18.6816 40.2421 17.7246C39.1165 16.7676 38.1204 15.9082 38.0109 15.8105C37.8316 15.6445 37.8316 15.6348 38.1005 15.0977L38.3794 14.541L43.0312 14.5703L47.6829 14.5996L48.171 14.8926C48.4699 15.0781 48.7687 15.3711 48.9579 15.6641L49.2568 16.1426L49.2867 27.4121L49.3066 38.6719H25.4999H1.6933V27.5391C1.6933 15.4199 1.66342 16.1133 2.24115 15.3711C2.37064 15.1953 2.71928 14.9414 3.00814 14.8047C3.49623 14.5605 3.6058 14.5508 5.08998 14.5508H6.66381L7.11205 14.8438ZM29.2353 14.8633C29.305 15.0391 29.4943 15.3613 29.6537 15.5762C29.813 15.791 29.9724 16.0156 30.0122 16.084C30.0621 16.1523 28.9165 17.4609 26.9841 19.5508C25.2808 21.3965 23.7369 23.0469 23.5675 23.2227L23.2488 23.5449L22.6013 23.252C21.2865 22.6465 19.7126 22.4609 18.348 22.7441C18.0093 22.8223 17.7005 22.8613 17.6706 22.832C17.6009 22.7539 14.9413 15.5957 14.9413 15.4688C14.9413 15.4102 15.0708 15.3027 15.2203 15.2441C15.3697 15.1855 15.6984 15 15.9374 14.8438L16.3857 14.5508H22.7408H29.0958L29.2353 14.8633ZM45.2326 21.2207C46.1988 21.8555 46.3083 23.1641 45.4617 23.8184C44.3859 24.6484 42.832 23.9355 42.812 22.6172C42.7921 21.377 44.2165 20.5469 45.2326 21.2207ZM21.0275 24.375C22.7806 24.8828 24.0556 26.1816 24.5238 27.9297C24.9421 29.502 24.4441 31.2109 23.2089 32.4219C21.2566 34.3359 18.2085 34.3262 16.2662 32.4121C14.7122 30.8789 14.3935 28.457 15.4992 26.6113C15.8578 25.9961 16.6745 25.2051 17.2921 24.8633C18.3779 24.248 19.9119 24.0527 21.0275 24.375ZM49.3066 41.0156C49.3066 42.0898 48.8882 42.8027 47.9619 43.291L47.5634 43.5059H25.4999H3.43646L3.03803 43.291C2.11166 42.8027 1.6933 42.0898 1.6933 41.0156V40.332H25.4999H49.3066V41.0156ZM36.1581 46.7285V48.3398H25.4999H14.8417V46.7285V45.1172H25.4999H36.1581V46.7285Z" fill="white"/>
<path d="M37.8516 33.0566V33.8867H42.7822H47.7129V33.0566V32.2266H42.7822H37.8516V33.0566Z" fill="white"/>
<path d="M37.8516 36.2793V37.1094H41.1387H44.4258V36.2793V35.4492H41.1387H37.8516V36.2793Z" fill="white"/>
<path d="M46.0593 35.5762C46.0295 35.6543 46.0195 36.0156 46.0394 36.3867L46.0693 37.0605L46.8961 37.0898L47.7129 37.1191V36.2793V35.4492H46.916C46.3382 35.4492 46.0992 35.4883 46.0593 35.5762Z" fill="white"/>
</svg>
