<svg width="90" height="90" viewBox="0 0 90 90" fill="none" xmlns="http://www.w3.org/2000/svg">
<path d="M5.1856 20.6367C4.02545 21.1465 3.3399 22.5 3.58599 23.7832C3.7442 24.6094 4.64068 25.6113 5.41412 25.8399C5.87115 25.9805 17.8946 26.0156 45.3868 25.9805L84.709 25.9277L85.1837 25.5586C85.9571 24.9961 86.3438 24.3633 86.4317 23.5195C86.5547 22.5 86.168 21.6211 85.3243 20.9883L84.6739 20.4785L45.1934 20.4434C12.6387 20.4082 5.62506 20.4434 5.1856 20.6367Z" fill="black"/>
<path d="M5.1856 43.1367C4.02545 43.6465 3.3399 45 3.58599 46.2832C3.7442 47.1094 4.64068 48.1113 5.41412 48.3399C5.87115 48.4805 12.3223 48.5156 26.4024 48.4805C46.6172 48.4277 46.7403 48.4277 47.2149 48.0586C47.9883 47.4961 48.3751 46.8633 48.4629 46.0195C48.586 45 48.1993 44.1211 47.3555 43.4883L46.7051 42.9785L26.209 42.9434C9.43951 42.9082 5.60748 42.9434 5.1856 43.1367Z" fill="black"/>
<path d="M5.1856 65.6367C4.02545 66.1465 3.3399 67.5 3.58599 68.7832C3.7442 69.6094 4.64068 70.6113 5.41412 70.8399C5.87115 70.9805 17.8946 71.0156 45.3868 70.9805L84.709 70.9277L85.1837 70.5586C85.9571 69.9961 86.3438 69.3633 86.4317 68.5196C86.5547 67.5 86.168 66.6211 85.3243 65.9883L84.6739 65.4785L45.1934 65.4434C12.6387 65.4082 5.62506 65.4434 5.1856 65.6367Z" fill="black"/>
</svg>
