<svg width="224" height="255" viewBox="0 0 224 255" fill="none" xmlns="http://www.w3.org/2000/svg">
<path d="M4.46234 26.5493C2.99473 27.7835 2.48088 28.6962 2.18672 30.5912C1.81697 33.0016 2.37853 35.2066 31.9071 140.822C61.4356 246.437 62.0991 248.614 63.6654 250.483C64.8997 251.95 65.8124 252.464 67.7073 252.758C70.1178 253.128 72.1699 252.609 161.635 227.596C251.099 202.583 253.123 201.962 254.992 200.396C256.46 199.162 256.974 198.249 257.268 196.354C257.637 193.944 257.147 191.993 234.427 110.731C218.488 53.7206 210.9 27.1684 210.221 26.3144C209.205 24.8408 144.695 -11.7791 142.242 -12.3017C140.899 -12.5854 130.834 -9.88118 73.5177 6.14372C8.10045 24.4335 6.33152 24.983 4.46234 26.5493ZM140.925 27.7814C146.508 47.7531 147.023 49.2021 148.51 50.9836C149.745 52.4512 150.657 52.965 152.552 53.2592C154.847 53.6065 156.352 53.2953 176.324 47.7115L197.569 41.7716L218.081 115.137L238.593 188.502L157.076 211.293L75.5596 234.084L48.2104 136.264L20.8613 38.4435L77.923 22.4898L134.985 6.53613L140.925 27.7814ZM168.183 21.149L181.548 28.6732L170.951 31.6361L160.405 34.5847L157.484 24.1403C155.875 18.3832 154.615 13.6817 154.717 13.6532C154.768 13.639 160.817 17.0015 168.183 21.149Z" fill="white"/>
<path d="M98.2305 70.3693C86.9557 76.2132 77.7721 86.1964 73.3113 97.5508C71.3797 102.43 69.9237 110.583 69.9501 116.178C69.9945 122.428 73.4274 134.706 76.6022 139.971C89.5883 161.663 113.326 171.121 136.084 163.715C145.002 160.837 152.908 155.715 158.292 149.431L160.194 147.196L176.855 156.49C190.806 164.345 193.915 165.838 195.724 165.826C202.011 165.716 206.048 158.545 202.845 153.179C201.916 151.626 198.832 149.632 185.076 141.887L168.489 132.463L169.413 129.677C173.228 118.174 171.952 103.59 166.108 92.3149C161.537 83.4308 155.571 77.024 147.336 72.1304C139.037 67.2 131.339 65.0127 121.835 64.8134C117.636 64.7242 115.745 65.0332 109.231 66.6894C103.955 68.0546 100.483 69.1903 98.2305 70.3693ZM115.235 81.8746C126.347 80.3608 137.522 84.3773 145.323 92.633C149.253 96.8627 151.454 100.806 153.092 106.666C155.642 115.785 154.683 123.359 149.765 132.095C147.283 136.579 145.907 138.337 142.927 141.038C134.484 148.562 124.957 151.225 113.937 149.143C106.983 147.846 99.6818 143.735 95.046 138.55C90.3022 133.174 88.5266 129.771 87.0945 123.47C85.0745 114.476 86.1268 107.041 90.7515 98.827C94.3342 92.3872 99.9806 87.2381 106.472 84.3246C110.631 82.5025 110.631 82.5025 115.235 81.8746Z" fill="white"/>
</svg>
