<svg width="28" height="28" viewBox="0 0 28 28" fill="none" xmlns="http://www.w3.org/2000/svg">
<g filter="url(#filter0_d_156_31)">
<path d="M0 13.9999C0 6.26713 6.26719 -6.10352e-05 14 -6.10352e-05C21.7328 -6.10352e-05 28 6.26713 28 13.9999C28 21.7328 21.7328 27.9999 14 27.9999C6.26719 27.9999 0 21.7328 0 13.9999ZM9.1875 12.6874C8.46016 12.6874 7.875 13.2726 7.875 13.9999C7.875 14.7273 8.46016 15.3124 9.1875 15.3124H18.8125C19.5398 15.3124 20.125 14.7273 20.125 13.9999C20.125 13.2726 19.5398 12.6874 18.8125 12.6874H9.1875Z" fill="#272630"/>
</g>
<defs>
<filter id="filter0_d_156_31" x="-2" y="-1.50006" width="32" height="32" filterUnits="userSpaceOnUse" color-interpolation-filters="sRGB">
<feFlood flood-opacity="0" result="BackgroundImageFix"/>
<feColorMatrix in="SourceAlpha" type="matrix" values="0 0 0 0 0 0 0 0 0 0 0 0 0 0 0 0 0 0 127 0" result="hardAlpha"/>
<feOffset dy="0.5"/>
<feGaussianBlur stdDeviation="1"/>
<feComposite in2="hardAlpha" operator="out"/>
<feColorMatrix type="matrix" values="0 0 0 0 0 0 0 0 0 0 0 0 0 0 0 0 0 0 0.25 0"/>
<feBlend mode="normal" in2="BackgroundImageFix" result="effect1_dropShadow_156_31"/>
<feBlend mode="normal" in="SourceGraphic" in2="effect1_dropShadow_156_31" result="shape"/>
</filter>
</defs>
</svg>
